<svg width="29" height="28" viewBox="0 0 29 28" fill="none" xmlns="http://www.w3.org/2000/svg">
<path d="M6.97904 12.6448C3.78928 12.5196 1.2109 10.0063 1.00101 6.82432C1.2109 3.64231 3.78928 1.12906 6.97904 1.00381L7.06637 1.00039L7.15371 1.00381C10.3435 1.12906 12.9218 3.64231 13.1317 6.82432C12.9218 10.0063 10.3435 12.5196 7.15371 12.6448L7.06637 12.6483L6.97904 12.6448Z" stroke="white"/>
<path d="M21.7224 12.6448C18.5327 12.5196 15.9543 10.0063 15.7444 6.82432C15.9543 3.64231 18.5327 1.12906 21.7224 1.00381L21.8098 1.00039L21.8971 1.00381C25.0869 1.12906 27.6653 3.64231 27.8751 6.82432C27.6653 10.0063 25.0869 12.5196 21.8971 12.6448L21.8098 12.6483L21.7224 12.6448Z" stroke="white"/>
<path d="M7.10294 26.9962C3.91318 26.8709 1.3348 24.3577 1.12491 21.1756C1.3348 17.9936 3.91318 15.4804 7.10294 15.3551L7.19027 15.3517L7.27761 15.3551C10.4674 15.4804 13.0457 17.9936 13.2556 21.1756C13.0457 24.3577 10.4674 26.8709 7.27761 26.9962L7.19027 26.9996L7.10294 26.9962Z" stroke="white"/>
<path d="M21.8463 26.9962C18.6566 26.8709 16.0782 24.3577 15.8683 21.1756C16.0782 17.9936 18.6566 15.4804 21.8463 15.3551L21.9337 15.3517L22.021 15.3551C25.2108 15.4804 27.7892 17.9936 27.999 21.1756C27.7892 24.3577 25.2108 26.8709 22.021 26.9962L21.9337 26.9996L21.8463 26.9962Z" stroke="white"/>
</svg>
